# xmcd CD database file
#
# Track frame offsets:
#	150
#	15400
#	38795
#	53987
#
# Disc length: 925 seconds
#
# Revision: 2
# Processed by: cddbd v1.4b41PL1 Copyright (c) Steve Scherf et al.
# Submitted via: Feurio! 1.50.2ß - http://www.feurio.com
#
DISCID=27039b04
DTITLE=Yannik - ces soirées là
DYEAR=1900
DGENRE=
TTITLE0=ces soirées là (Edit Radio)
TTITLE1=ces soirées là (House Mix)
TTITLE2=ces soirées là (Version instrumentale)
TTITLE3=ces soirées là (Version A Capella)
EXTD=
EXTT0=
EXTT1=
EXTT2=
EXTT3=
PLAYORDER=
